P3
3 2
255
50 50 50
255 255 255
123 100 76
255 255 255
123 100 76
50 50 50
